<?xml version="1.0" encoding="utf-8"?>
<!-- Uploaded to: SVG Repo, www.svgrepo.com, Generator: SVG Repo Mixer Tools -->
<svg width="800px" height="800px" viewBox="0 0 1024 1024" class="icon"  version="1.1" xmlns="http://www.w3.org/2000/svg"><path d="M 511.147 961.813 c -50.4533 0 -99.3066 -9.91997 -145.387 -29.3333 c -44.48 -18.7733 -84.3733 -45.76 -118.72 -80 c -34.24 -34.24 -61.2267 -74.24 -80 -118.72 c -19.52 -46.08 -29.3333 -94.9331 -29.3333 -145.387 c 0 -50.4533 9.91997 -99.3066 29.3333 -145.387 c 18.7733 -44.48 45.76 -84.3733 80 -118.72 c 34.24 -34.24 74.24 -61.2267 118.72 -80 c 46.08 -19.52 94.9331 -29.3333 145.387 -29.3333 c 50.4533 0 99.3066 9.91997 145.387 29.3333 c 44.48 18.7733 84.3733 45.76 118.72 80 c 34.24 34.24 61.2267 74.24 80 118.72 c 19.52 46.08 29.3333 94.9331 29.3333 145.387 c 0 50.4533 -9.91997 99.3066 -29.3333 145.387 c -18.7733 44.48 -45.76 84.3733 -80 118.72 c -34.24 34.24 -74.24 61.2267 -118.72 80 c -46.08 19.4133 -94.9331 29.3333 -145.387 29.3333 Z m 0 -682.667 c -170.453 0 -309.227 138.667 -309.227 309.227 s 138.667 309.227 309.227 309.227 s 309.227 -138.667 309.227 -309.227 s -138.667 -309.227 -309.227 -309.227 Z" fill="#ffd778" /><path d="M 294.507 188.16 c 0 -67.9467 55.04 -122.987 122.987 -122.987 c 37.5467 0 71.1467 16.8533 93.6533 43.3067 c 22.6133 -26.4533 56.2133 -43.3067 93.6533 -43.3067 c 67.9467 0 122.987 55.04 122.987 122.987 c 0 35.6267 -16.4267 65.4933 -39.4667 90.24 L 510.72 449.28 L 336 280.32 c -22.1867 -23.1467 -41.4933 -55.4667 -41.4933 -92.16 Z" fill="#d1525c" /><path d="M 510.72 449.28 L 336 280.32 c -22.1867 -23.1467 -41.4933 -55.4667 -41.4933 -92.16 c 0 -67.9467 55.04 -122.987 122.987 -122.987 c 37.5467 0 71.1467 16.8533 93.6533 43.3067 l -0.426667 340.8 Z" fill="#db6574" /></svg>